ISO-10303-21;
HEADER;
/* Generated by software containing ST-Developer
 * from STEP Tools, Inc. (www.steptools.com) 
 */
/* OPTION: using custom renumber hook */

FILE_DESCRIPTION(
/* description */ ('STEP AP242 Edition 2',
'CAx-IF Rec.Pracs.---Representation and Presentation of Product Manufa
cturing Information (PMI)---4.0---2014-10-13',
'CAx-IF Rec.Pracs.---3D Tessellated Geometry---0.4---2014-09-14','2;1',
'CAx-IF Rec.Pracs.---User Defined Attributes---1.5---2016-08-15'),
/* implementation_level */ '2;1');

FILE_NAME(
/* name */ 'Part Studio 1 - Left bottom case',
/* time_stamp */ '2026-09-16T09:48:29Z',
/* author */ (''),
/* organization */ (''),
/* preprocessor_version */ 'ST-DEVELOPER v20',
/* originating_system */ 'ONSHAPE BY PTC INC, 1.220',
/* authorisation */ '  ');

FILE_SCHEMA (('AP242_MANAGED_MODEL_BASED_3D_ENGINEERING_MIM_LF { 1 0 10303 442 3 1 4 }'));
ENDSEC;

DATA;
#10=SHAPE_REPRESENTATION_RELATIONSHIP('','',#359,#11);
#11=ADVANCED_BREP_SHAPE_REPRESENTATION('',(#357),#597);
#12=CYLINDRICAL_SURFACE('',#381,0.00500000000000007);
#13=CYLINDRICAL_SURFACE('',#384,0.0050000000000001);
#14=CYLINDRICAL_SURFACE('',#387,0.0015);
#15=CYLINDRICAL_SURFACE('',#389,0.0015);
#16=CYLINDRICAL_SURFACE('',#392,0.00175);
#17=CYLINDRICAL_SURFACE('',#393,0.00175);
#18=CYLINDRICAL_SURFACE('',#394,0.002);
#19=CYLINDRICAL_SURFACE('',#395,0.002);
#20=CIRCLE('',#365,0.002);
#21=CIRCLE('',#366,0.002);
#22=CIRCLE('',#367,0.0015);
#23=CIRCLE('',#368,0.0015);
#24=CIRCLE('',#370,0.00175);
#25=CIRCLE('',#372,0.00500000000000007);
#26=CIRCLE('',#373,0.0050000000000001);
#27=CIRCLE('',#374,0.002);
#28=CIRCLE('',#375,0.002);
#29=CIRCLE('',#376,0.00175);
#30=CIRCLE('',#377,0.00175);
#31=CIRCLE('',#379,0.00175);
#32=CIRCLE('',#382,0.00500000000000007);
#33=CIRCLE('',#385,0.0050000000000001);
#34=CIRCLE('',#388,0.0015);
#35=CIRCLE('',#390,0.0015);
#36=ORIENTED_EDGE('',*,*,#124,.F.);
#37=ORIENTED_EDGE('',*,*,#125,.T.);
#38=ORIENTED_EDGE('',*,*,#126,.T.);
#39=ORIENTED_EDGE('',*,*,#127,.F.);
#40=ORIENTED_EDGE('',*,*,#128,.T.);
#41=ORIENTED_EDGE('',*,*,#129,.T.);
#42=ORIENTED_EDGE('',*,*,#130,.F.);
#43=ORIENTED_EDGE('',*,*,#131,.T.);
#44=ORIENTED_EDGE('',*,*,#132,.F.);
#45=ORIENTED_EDGE('',*,*,#133,.F.);
#46=ORIENTED_EDGE('',*,*,#134,.F.);
#47=ORIENTED_EDGE('',*,*,#135,.T.);
#48=ORIENTED_EDGE('',*,*,#136,.F.);
#49=ORIENTED_EDGE('',*,*,#128,.F.);
#50=ORIENTED_EDGE('',*,*,#137,.T.);
#51=ORIENTED_EDGE('',*,*,#127,.T.);
#52=ORIENTED_EDGE('',*,*,#138,.T.);
#53=ORIENTED_EDGE('',*,*,#133,.T.);
#54=ORIENTED_EDGE('',*,*,#139,.F.);
#55=ORIENTED_EDGE('',*,*,#140,.F.);
#56=ORIENTED_EDGE('',*,*,#141,.T.);
#57=ORIENTED_EDGE('',*,*,#142,.F.);
#58=ORIENTED_EDGE('',*,*,#143,.T.);
#59=ORIENTED_EDGE('',*,*,#144,.T.);
#60=ORIENTED_EDGE('',*,*,#145,.T.);
#61=ORIENTED_EDGE('',*,*,#146,.T.);
#62=ORIENTED_EDGE('',*,*,#147,.F.);
#63=ORIENTED_EDGE('',*,*,#148,.F.);
#64=ORIENTED_EDGE('',*,*,#135,.F.);
#65=ORIENTED_EDGE('',*,*,#149,.F.);
#66=ORIENTED_EDGE('',*,*,#125,.F.);
#67=ORIENTED_EDGE('',*,*,#150,.F.);
#68=ORIENTED_EDGE('',*,*,#130,.T.);
#69=ORIENTED_EDGE('',*,*,#151,.T.);
#70=ORIENTED_EDGE('',*,*,#152,.T.);
#71=ORIENTED_EDGE('',*,*,#153,.T.);
#72=ORIENTED_EDGE('',*,*,#154,.F.);
#73=ORIENTED_EDGE('',*,*,#155,.T.);
#74=ORIENTED_EDGE('',*,*,#156,.T.);
#75=ORIENTED_EDGE('',*,*,#143,.F.);
#76=ORIENTED_EDGE('',*,*,#157,.T.);
#77=ORIENTED_EDGE('',*,*,#144,.F.);
#78=ORIENTED_EDGE('',*,*,#156,.F.);
#79=ORIENTED_EDGE('',*,*,#158,.T.);
#80=ORIENTED_EDGE('',*,*,#159,.T.);
#81=ORIENTED_EDGE('',*,*,#145,.F.);
#82=ORIENTED_EDGE('',*,*,#157,.F.);
#83=ORIENTED_EDGE('',*,*,#160,.T.);
#84=ORIENTED_EDGE('',*,*,#161,.T.);
#85=ORIENTED_EDGE('',*,*,#146,.F.);
#86=ORIENTED_EDGE('',*,*,#159,.F.);
#87=ORIENTED_EDGE('',*,*,#162,.T.);
#88=ORIENTED_EDGE('',*,*,#163,.F.);
#89=ORIENTED_EDGE('',*,*,#164,.T.);
#90=ORIENTED_EDGE('',*,*,#147,.T.);
#91=ORIENTED_EDGE('',*,*,#161,.F.);
#92=ORIENTED_EDGE('',*,*,#165,.F.);
#93=ORIENTED_EDGE('',*,*,#139,.T.);
#94=ORIENTED_EDGE('',*,*,#166,.F.);
#95=ORIENTED_EDGE('',*,*,#140,.T.);
#96=ORIENTED_EDGE('',*,*,#166,.T.);
#97=ORIENTED_EDGE('',*,*,#165,.T.);
#98=ORIENTED_EDGE('',*,*,#155,.F.);
#99=ORIENTED_EDGE('',*,*,#167,.T.);
#100=ORIENTED_EDGE('',*,*,#163,.T.);
#101=ORIENTED_EDGE('',*,*,#162,.F.);
#102=ORIENTED_EDGE('',*,*,#160,.F.);
#103=ORIENTED_EDGE('',*,*,#158,.F.);
#104=ORIENTED_EDGE('',*,*,#153,.F.);
#105=ORIENTED_EDGE('',*,*,#151,.F.);
#106=ORIENTED_EDGE('',*,*,#152,.F.);
#107=ORIENTED_EDGE('',*,*,#141,.F.);
#108=ORIENTED_EDGE('',*,*,#138,.F.);
#109=ORIENTED_EDGE('',*,*,#126,.F.);
#110=ORIENTED_EDGE('',*,*,#149,.T.);
#111=ORIENTED_EDGE('',*,*,#134,.T.);
#112=ORIENTED_EDGE('',*,*,#137,.F.);
#113=ORIENTED_EDGE('',*,*,#131,.F.);
#114=ORIENTED_EDGE('',*,*,#150,.T.);
#115=ORIENTED_EDGE('',*,*,#124,.T.);
#116=ORIENTED_EDGE('',*,*,#136,.T.);
#117=ORIENTED_EDGE('',*,*,#132,.T.);
#118=ORIENTED_EDGE('',*,*,#148,.T.);
#119=ORIENTED_EDGE('',*,*,#164,.F.);
#120=ORIENTED_EDGE('',*,*,#167,.F.);
#121=ORIENTED_EDGE('',*,*,#154,.T.);
#122=ORIENTED_EDGE('',*,*,#142,.T.);
#123=ORIENTED_EDGE('',*,*,#129,.F.);
#124=EDGE_CURVE('',#168,#169,#200,.T.);
#125=EDGE_CURVE('',#168,#170,#201,.T.);
#126=EDGE_CURVE('',#170,#171,#202,.T.);
#127=EDGE_CURVE('',#169,#171,#203,.T.);
#128=EDGE_CURVE('',#172,#173,#204,.T.);
#129=EDGE_CURVE('',#173,#174,#205,.T.);
#130=EDGE_CURVE('',#175,#174,#206,.T.);
#131=EDGE_CURVE('',#175,#172,#207,.T.);
#132=EDGE_CURVE('',#176,#177,#208,.T.);
#133=EDGE_CURVE('',#178,#176,#209,.T.);
#134=EDGE_CURVE('',#179,#178,#210,.T.);
#135=EDGE_CURVE('',#179,#177,#211,.T.);
#136=EDGE_CURVE('',#173,#176,#212,.T.);
#137=EDGE_CURVE('',#172,#169,#20,.T.);
#138=EDGE_CURVE('',#171,#178,#21,.T.);
#139=EDGE_CURVE('',#180,#180,#22,.T.);
#140=EDGE_CURVE('',#181,#181,#23,.T.);
#141=EDGE_CURVE('',#182,#182,#24,.T.);
#142=EDGE_CURVE('',#183,#174,#213,.T.);
#143=EDGE_CURVE('',#183,#184,#214,.T.);
#144=EDGE_CURVE('',#184,#185,#25,.T.);
#145=EDGE_CURVE('',#185,#186,#215,.T.);
#146=EDGE_CURVE('',#186,#187,#26,.T.);
#147=EDGE_CURVE('',#188,#187,#216,.T.);
#148=EDGE_CURVE('',#177,#188,#217,.T.);
#149=EDGE_CURVE('',#170,#179,#27,.T.);
#150=EDGE_CURVE('',#175,#168,#28,.T.);
#151=EDGE_CURVE('',#189,#189,#29,.F.);
#152=EDGE_CURVE('',#190,#190,#30,.F.);
#153=EDGE_CURVE('',#191,#191,#31,.T.);
#154=EDGE_CURVE('',#192,#183,#218,.T.);
#155=EDGE_CURVE('',#192,#193,#219,.T.);
#156=EDGE_CURVE('',#193,#184,#220,.T.);
#157=EDGE_CURVE('',#194,#185,#221,.T.);
#158=EDGE_CURVE('',#193,#194,#32,.T.);
#159=EDGE_CURVE('',#195,#186,#222,.T.);
#160=EDGE_CURVE('',#194,#195,#223,.T.);
#161=EDGE_CURVE('',#196,#187,#224,.T.);
#162=EDGE_CURVE('',#195,#196,#33,.T.);
#163=EDGE_CURVE('',#197,#196,#225,.T.);
#164=EDGE_CURVE('',#197,#188,#226,.T.);
#165=EDGE_CURVE('',#198,#198,#34,.T.);
#166=EDGE_CURVE('',#199,#199,#35,.T.);
#167=EDGE_CURVE('',#192,#197,#227,.T.);
#168=VERTEX_POINT('',#502);
#169=VERTEX_POINT('',#503);
#170=VERTEX_POINT('',#505);
#171=VERTEX_POINT('',#507);
#172=VERTEX_POINT('',#511);
#173=VERTEX_POINT('',#512);
#174=VERTEX_POINT('',#514);
#175=VERTEX_POINT('',#516);
#176=VERTEX_POINT('',#520);
#177=VERTEX_POINT('',#521);
#178=VERTEX_POINT('',#523);
#179=VERTEX_POINT('',#525);
#180=VERTEX_POINT('',#532);
#181=VERTEX_POINT('',#534);
#182=VERTEX_POINT('',#537);
#183=VERTEX_POINT('',#540);
#184=VERTEX_POINT('',#542);
#185=VERTEX_POINT('',#544);
#186=VERTEX_POINT('',#546);
#187=VERTEX_POINT('',#548);
#188=VERTEX_POINT('',#550);
#189=VERTEX_POINT('',#555);
#190=VERTEX_POINT('',#557);
#191=VERTEX_POINT('',#560);
#192=VERTEX_POINT('',#563);
#193=VERTEX_POINT('',#565);
#194=VERTEX_POINT('',#569);
#195=VERTEX_POINT('',#573);
#196=VERTEX_POINT('',#577);
#197=VERTEX_POINT('',#581);
#198=VERTEX_POINT('',#585);
#199=VERTEX_POINT('',#588);
#200=LINE('',#501,#228);
#201=LINE('',#504,#229);
#202=LINE('',#506,#230);
#203=LINE('',#508,#231);
#204=LINE('',#510,#232);
#205=LINE('',#513,#233);
#206=LINE('',#515,#234);
#207=LINE('',#517,#235);
#208=LINE('',#519,#236);
#209=LINE('',#522,#237);
#210=LINE('',#524,#238);
#211=LINE('',#526,#239);
#212=LINE('',#528,#240);
#213=LINE('',#539,#241);
#214=LINE('',#541,#242);
#215=LINE('',#545,#243);
#216=LINE('',#549,#244);
#217=LINE('',#551,#245);
#218=LINE('',#562,#246);
#219=LINE('',#564,#247);
#220=LINE('',#566,#248);
#221=LINE('',#568,#249);
#222=LINE('',#572,#250);
#223=LINE('',#574,#251);
#224=LINE('',#576,#252);
#225=LINE('',#580,#253);
#226=LINE('',#582,#254);
#227=LINE('',#590,#255);
#228=VECTOR('',#401,1.);
#229=VECTOR('',#402,1.);
#230=VECTOR('',#403,1.);
#231=VECTOR('',#404,1.);
#232=VECTOR('',#407,1.);
#233=VECTOR('',#408,1.);
#234=VECTOR('',#409,1.);
#235=VECTOR('',#410,1.);
#236=VECTOR('',#413,1.);
#237=VECTOR('',#414,1.);
#238=VECTOR('',#415,1.);
#239=VECTOR('',#416,1.);
#240=VECTOR('',#419,1.);
#241=VECTOR('',#434,1.);
#242=VECTOR('',#435,1.);
#243=VECTOR('',#438,1.);
#244=VECTOR('',#441,1.);
#245=VECTOR('',#442,1.);
#246=VECTOR('',#457,1.);
#247=VECTOR('',#458,1.);
#248=VECTOR('',#459,1.);
#249=VECTOR('',#462,1.);
#250=VECTOR('',#467,1.);
#251=VECTOR('',#468,1.);
#252=VECTOR('',#471,1.);
#253=VECTOR('',#476,1.);
#254=VECTOR('',#477,1.);
#255=VECTOR('',#488,1.);
#256=EDGE_LOOP('',(#36,#37,#38,#39));
#257=EDGE_LOOP('',(#40,#41,#42,#43));
#258=EDGE_LOOP('',(#44,#45,#46,#47));
#259=EDGE_LOOP('',(#48,#49,#50,#51,#52,#53));
#260=EDGE_LOOP('',(#54));
#261=EDGE_LOOP('',(#55));
#262=EDGE_LOOP('',(#56));
#263=EDGE_LOOP('',(#57,#58,#59,#60,#61,#62,#63,#64,#65,#66,#67,#68));
#264=EDGE_LOOP('',(#69));
#265=EDGE_LOOP('',(#70));
#266=EDGE_LOOP('',(#71));
#267=EDGE_LOOP('',(#72,#73,#74,#75));
#268=EDGE_LOOP('',(#76,#77,#78,#79));
#269=EDGE_LOOP('',(#80,#81,#82,#83));
#270=EDGE_LOOP('',(#84,#85,#86,#87));
#271=EDGE_LOOP('',(#88,#89,#90,#91));
#272=EDGE_LOOP('',(#92));
#273=EDGE_LOOP('',(#93));
#274=EDGE_LOOP('',(#94));
#275=EDGE_LOOP('',(#95));
#276=EDGE_LOOP('',(#96));
#277=EDGE_LOOP('',(#97));
#278=EDGE_LOOP('',(#98,#99,#100,#101,#102,#103));
#279=EDGE_LOOP('',(#104));
#280=EDGE_LOOP('',(#105));
#281=EDGE_LOOP('',(#106));
#282=EDGE_LOOP('',(#107));
#283=EDGE_LOOP('',(#108,#109,#110,#111));
#284=EDGE_LOOP('',(#112,#113,#114,#115));
#285=EDGE_LOOP('',(#116,#117,#118,#119,#120,#121,#122,#123));
#286=FACE_BOUND('',#256,.T.);
#287=FACE_BOUND('',#257,.T.);
#288=FACE_BOUND('',#258,.T.);
#289=FACE_BOUND('',#259,.T.);
#290=FACE_BOUND('',#260,.T.);
#291=FACE_BOUND('',#261,.T.);
#292=FACE_BOUND('',#262,.T.);
#293=FACE_BOUND('',#263,.T.);
#294=FACE_BOUND('',#264,.T.);
#295=FACE_BOUND('',#265,.T.);
#296=FACE_BOUND('',#266,.T.);
#297=FACE_BOUND('',#267,.T.);
#298=FACE_BOUND('',#268,.T.);
#299=FACE_BOUND('',#269,.T.);
#300=FACE_BOUND('',#270,.T.);
#301=FACE_BOUND('',#271,.T.);
#302=FACE_BOUND('',#272,.T.);
#303=FACE_BOUND('',#273,.T.);
#304=FACE_BOUND('',#274,.T.);
#305=FACE_BOUND('',#275,.T.);
#306=FACE_BOUND('',#276,.T.);
#307=FACE_BOUND('',#277,.T.);
#308=FACE_BOUND('',#278,.T.);
#309=FACE_BOUND('',#279,.T.);
#310=FACE_BOUND('',#280,.T.);
#311=FACE_BOUND('',#281,.T.);
#312=FACE_BOUND('',#282,.T.);
#313=FACE_BOUND('',#283,.T.);
#314=FACE_BOUND('',#284,.T.);
#315=FACE_BOUND('',#285,.T.);
#316=PLANE('',#361);
#317=PLANE('',#362);
#318=PLANE('',#363);
#319=PLANE('',#364);
#320=PLANE('',#369);
#321=PLANE('',#371);
#322=PLANE('',#378);
#323=PLANE('',#380);
#324=PLANE('',#383);
#325=PLANE('',#386);
#326=PLANE('',#391);
#327=PLANE('',#396);
#328=ADVANCED_FACE('',(#286),#316,.T.);
#329=ADVANCED_FACE('',(#287),#317,.F.);
#330=ADVANCED_FACE('',(#288),#318,.T.);
#331=ADVANCED_FACE('',(#289,#290,#291),#319,.T.);
#332=ADVANCED_FACE('',(#292),#320,.T.);
#333=ADVANCED_FACE('',(#293,#294,#295),#321,.T.);
#334=ADVANCED_FACE('',(#296),#322,.T.);
#335=ADVANCED_FACE('',(#297),#323,.T.);
#336=ADVANCED_FACE('',(#298),#12,.T.);
#337=ADVANCED_FACE('',(#299),#324,.T.);
#338=ADVANCED_FACE('',(#300),#13,.T.);
#339=ADVANCED_FACE('',(#301),#325,.F.);
#340=ADVANCED_FACE('',(#302,#303),#14,.F.);
#341=ADVANCED_FACE('',(#304,#305),#15,.F.);
#342=ADVANCED_FACE('',(#306,#307,#308),#326,.F.);
#343=ADVANCED_FACE('',(#309,#310),#16,.F.);
#344=ADVANCED_FACE('',(#311,#312),#17,.F.);
#345=ADVANCED_FACE('',(#313),#18,.T.);
#346=ADVANCED_FACE('',(#314),#19,.T.);
#347=ADVANCED_FACE('',(#315),#327,.F.);
#348=CLOSED_SHELL('',(#328,#329,#330,#331,#332,#333,#334,#335,#336,#337,
#338,#339,#340,#341,#342,#343,#344,#345,#346,#347));
#349=STYLED_ITEM('',(#350),#357);
#350=PRESENTATION_STYLE_ASSIGNMENT((#351));
#351=SURFACE_STYLE_USAGE(.BOTH.,#352);
#352=SURFACE_SIDE_STYLE('',(#353));
#353=SURFACE_STYLE_FILL_AREA(#354);
#354=FILL_AREA_STYLE('',(#355));
#355=FILL_AREA_STYLE_COLOUR('',#356);
#356=COLOUR_RGB('',0.231372549019608,0.380392156862745,0.705882352941177);
#357=MANIFOLD_SOLID_BREP('Left bottom case',#348);
#358=SHAPE_DEFINITION_REPRESENTATION(#602,#359);
#359=SHAPE_REPRESENTATION('Left bottom case',(#360),#597);
#360=AXIS2_PLACEMENT_3D('',#499,#397,#398);
#361=AXIS2_PLACEMENT_3D('',#500,#399,#400);
#362=AXIS2_PLACEMENT_3D('',#509,#405,#406);
#363=AXIS2_PLACEMENT_3D('',#518,#411,#412);
#364=AXIS2_PLACEMENT_3D('',#527,#417,#418);
#365=AXIS2_PLACEMENT_3D('',#529,#420,#421);
#366=AXIS2_PLACEMENT_3D('',#530,#422,#423);
#367=AXIS2_PLACEMENT_3D('',#531,#424,#425);
#368=AXIS2_PLACEMENT_3D('',#533,#426,#427);
#369=AXIS2_PLACEMENT_3D('',#535,#428,#429);
#370=AXIS2_PLACEMENT_3D('',#536,#430,#431);
#371=AXIS2_PLACEMENT_3D('',#538,#432,#433);
#372=AXIS2_PLACEMENT_3D('',#543,#436,#437);
#373=AXIS2_PLACEMENT_3D('',#547,#439,#440);
#374=AXIS2_PLACEMENT_3D('',#552,#443,#444);
#375=AXIS2_PLACEMENT_3D('',#553,#445,#446);
#376=AXIS2_PLACEMENT_3D('',#554,#447,#448);
#377=AXIS2_PLACEMENT_3D('',#556,#449,#450);
#378=AXIS2_PLACEMENT_3D('',#558,#451,#452);
#379=AXIS2_PLACEMENT_3D('',#559,#453,#454);
#380=AXIS2_PLACEMENT_3D('',#561,#455,#456);
#381=AXIS2_PLACEMENT_3D('',#567,#460,#461);
#382=AXIS2_PLACEMENT_3D('',#570,#463,#464);
#383=AXIS2_PLACEMENT_3D('',#571,#465,#466);
#384=AXIS2_PLACEMENT_3D('',#575,#469,#470);
#385=AXIS2_PLACEMENT_3D('',#578,#472,#473);
#386=AXIS2_PLACEMENT_3D('',#579,#474,#475);
#387=AXIS2_PLACEMENT_3D('',#583,#478,#479);
#388=AXIS2_PLACEMENT_3D('',#584,#480,#481);
#389=AXIS2_PLACEMENT_3D('',#586,#482,#483);
#390=AXIS2_PLACEMENT_3D('',#587,#484,#485);
#391=AXIS2_PLACEMENT_3D('',#589,#486,#487);
#392=AXIS2_PLACEMENT_3D('',#591,#489,#490);
#393=AXIS2_PLACEMENT_3D('',#592,#491,#492);
#394=AXIS2_PLACEMENT_3D('',#593,#493,#494);
#395=AXIS2_PLACEMENT_3D('',#594,#495,#496);
#396=AXIS2_PLACEMENT_3D('',#595,#497,#498);
#397=DIRECTION('',(0.,0.,1.));
#398=DIRECTION('',(1.,0.,0.));
#399=DIRECTION('',(1.,0.,0.));
#400=DIRECTION('',(0.,0.,-1.));
#401=DIRECTION('',(0.,0.,-1.));
#402=DIRECTION('',(0.,-1.,0.));
#403=DIRECTION('',(0.,0.,-1.));
#404=DIRECTION('',(0.,-1.,0.));
#405=DIRECTION('',(0.,1.,0.));
#406=DIRECTION('',(0.,0.,1.));
#407=DIRECTION('',(1.,0.,0.));
#408=DIRECTION('',(0.,0.,1.));
#409=DIRECTION('',(1.,0.,0.));
#410=DIRECTION('',(0.,0.,-1.));
#411=DIRECTION('',(0.,1.,0.));
#412=DIRECTION('',(0.,0.,1.));
#413=DIRECTION('',(0.,0.,1.));
#414=DIRECTION('',(1.,0.,0.));
#415=DIRECTION('',(0.,0.,-1.));
#416=DIRECTION('',(1.,0.,0.));
#417=DIRECTION('',(0.,0.,1.));
#418=DIRECTION('',(1.,0.,0.));
#419=DIRECTION('',(0.,-1.,0.));
#420=DIRECTION('',(0.,0.,-1.));
#421=DIRECTION('',(1.,0.,0.));
#422=DIRECTION('',(0.,0.,-1.));
#423=DIRECTION('',(1.,0.,0.));
#424=DIRECTION('',(0.,0.,1.));
#425=DIRECTION('',(1.,0.,0.));
#426=DIRECTION('',(0.,0.,1.));
#427=DIRECTION('',(1.,0.,0.));
#428=DIRECTION('',(0.,0.,1.));
#429=DIRECTION('',(1.,0.,0.));
#430=DIRECTION('',(0.,0.,1.));
#431=DIRECTION('',(1.,0.,0.));
#432=DIRECTION('',(0.,0.,1.));
#433=DIRECTION('',(1.,0.,0.));
#434=DIRECTION('',(0.,-1.,0.));
#435=DIRECTION('',(-1.,0.,0.));
#436=DIRECTION('',(0.,0.,1.));
#437=DIRECTION('',(1.,0.,0.));
#438=DIRECTION('',(0.,-1.,0.));
#439=DIRECTION('',(0.,0.,1.));
#440=DIRECTION('',(1.,0.,0.));
#441=DIRECTION('',(-1.,0.,0.));
#442=DIRECTION('',(0.,-1.,0.));
#443=DIRECTION('',(0.,0.,-1.));
#444=DIRECTION('',(1.,0.,0.));
#445=DIRECTION('',(0.,0.,-1.));
#446=DIRECTION('',(1.,0.,0.));
#447=DIRECTION('',(0.,0.,1.));
#448=DIRECTION('',(1.,0.,0.));
#449=DIRECTION('',(0.,0.,1.));
#450=DIRECTION('',(1.,0.,0.));
#451=DIRECTION('',(0.,0.,1.));
#452=DIRECTION('',(1.,0.,0.));
#453=DIRECTION('',(0.,0.,1.));
#454=DIRECTION('',(1.,0.,0.));
#455=DIRECTION('',(0.,1.,0.));
#456=DIRECTION('',(0.,0.,1.));
#457=DIRECTION('',(0.,0.,1.));
#458=DIRECTION('',(-1.,0.,0.));
#459=DIRECTION('',(0.,0.,1.));
#460=DIRECTION('',(0.,0.,1.));
#461=DIRECTION('',(1.,0.,0.));
#462=DIRECTION('',(0.,0.,1.));
#463=DIRECTION('',(0.,0.,1.));
#464=DIRECTION('',(1.,0.,0.));
#465=DIRECTION('',(-1.,0.,0.));
#466=DIRECTION('',(0.,0.,1.));
#467=DIRECTION('',(0.,0.,1.));
#468=DIRECTION('',(0.,-1.,0.));
#469=DIRECTION('',(0.,0.,1.));
#470=DIRECTION('',(1.,0.,0.));
#471=DIRECTION('',(0.,0.,1.));
#472=DIRECTION('',(0.,0.,1.));
#473=DIRECTION('',(1.,0.,0.));
#474=DIRECTION('',(0.,1.,0.));
#475=DIRECTION('',(0.,0.,1.));
#476=DIRECTION('',(-1.,0.,0.));
#477=DIRECTION('',(0.,0.,1.));
#478=DIRECTION('',(0.,0.,1.));
#479=DIRECTION('',(1.,0.,0.));
#480=DIRECTION('',(0.,0.,1.));
#481=DIRECTION('',(1.,0.,0.));
#482=DIRECTION('',(0.,0.,1.));
#483=DIRECTION('',(1.,0.,0.));
#484=DIRECTION('',(0.,0.,1.));
#485=DIRECTION('',(1.,0.,0.));
#486=DIRECTION('',(0.,0.,1.));
#487=DIRECTION('',(1.,0.,0.));
#488=DIRECTION('',(0.,-1.,0.));
#489=DIRECTION('',(0.,0.,-1.));
#490=DIRECTION('',(-1.,0.,0.));
#491=DIRECTION('',(0.,0.,-1.));
#492=DIRECTION('',(-1.,0.,0.));
#493=DIRECTION('',(0.,0.,-1.));
#494=DIRECTION('',(-1.,0.,0.));
#495=DIRECTION('',(0.,0.,-1.));
#496=DIRECTION('',(-1.,0.,0.));
#497=DIRECTION('',(-1.,0.,0.));
#498=DIRECTION('',(0.,-1.,0.));
#499=CARTESIAN_POINT('',(0.,0.,0.));
#500=CARTESIAN_POINT('',(-0.196317,0.,0.0064));
#501=CARTESIAN_POINT('',(-0.196317,0.0700376957571356,0.0064));
#502=CARTESIAN_POINT('',(-0.196317,0.0700376957571356,0.0064));
#503=CARTESIAN_POINT('',(-0.196317,0.0700376957571356,-0.0056));
#504=CARTESIAN_POINT('',(-0.196317,0.,0.0064));
#505=CARTESIAN_POINT('',(-0.196317,-0.0700634957571356,0.0064));
#506=CARTESIAN_POINT('',(-0.196317,-0.0700634957571356,0.0064));
#507=CARTESIAN_POINT('',(-0.196317,-0.0700634957571356,-0.0056));
#508=CARTESIAN_POINT('',(-0.196317,0.,-0.0056));
#509=CARTESIAN_POINT('',(0.,0.0722565,0.0064));
#510=CARTESIAN_POINT('',(0.,0.0722565,-0.0056));
#511=CARTESIAN_POINT('',(-0.19409830745042,0.0722565,-0.0056));
#512=CARTESIAN_POINT('',(-1.7000000000017E-5,0.0722565,-0.0056));
#513=CARTESIAN_POINT('',(-1.7000000000017E-5,0.0722565,0.0064));
#514=CARTESIAN_POINT('',(-1.7000000000017E-5,0.0722565,0.0064));
#515=CARTESIAN_POINT('',(0.,0.0722565,0.0064));
#516=CARTESIAN_POINT('',(-0.19409830745042,0.0722565,0.0064));
#517=CARTESIAN_POINT('',(-0.19409830745042,0.0722565,0.0064));
#518=CARTESIAN_POINT('',(0.,-0.0722565,0.0064));
#519=CARTESIAN_POINT('',(-1.7000000000017E-5,-0.0722565,0.0064));
#520=CARTESIAN_POINT('',(-1.7000000000017E-5,-0.0722565,-0.0056));
#521=CARTESIAN_POINT('',(-1.7000000000017E-5,-0.0722565,0.0064));
#522=CARTESIAN_POINT('',(0.,-0.0722565,-0.0056));
#523=CARTESIAN_POINT('',(-0.194095459510543,-0.0722565,-0.0056));
#524=CARTESIAN_POINT('',(-0.194095459510543,-0.0722565,0.0064));
#525=CARTESIAN_POINT('',(-0.194095459510543,-0.0722565,0.0064));
#526=CARTESIAN_POINT('',(0.,-0.0722565,0.0064));
#527=CARTESIAN_POINT('',(0.,0.,-0.0056));
#528=CARTESIAN_POINT('',(-1.7000000000017E-5,0.,-0.0056));
#529=CARTESIAN_POINT('',(-0.196084766952967,0.0720241669529664,-0.0056));
#530=CARTESIAN_POINT('',(-0.196084766952967,-0.0720499669529664,-0.0056));
#531=CARTESIAN_POINT('',(-0.1887611,0.0543029,-0.0056));
#532=CARTESIAN_POINT('',(-0.1872611,0.0543029,-0.0056));
#533=CARTESIAN_POINT('',(-0.1887611,-0.0647521,-0.0056));
#534=CARTESIAN_POINT('',(-0.1872611,-0.0647521,-0.0056));
#535=CARTESIAN_POINT('',(0.,0.,-0.0056));
#536=CARTESIAN_POINT('',(-0.196084766952967,0.0720241669529664,-0.0056));
#537=CARTESIAN_POINT('',(-0.194334766952967,0.0720241669529664,-0.0056));
#538=CARTESIAN_POINT('',(0.,0.,0.0064));
#539=CARTESIAN_POINT('',(-1.7000000000017E-5,0.,0.0064));
#540=CARTESIAN_POINT('',(-1.7000000000017E-5,0.0752564,0.0064));
#541=CARTESIAN_POINT('',(0.,0.0752564,0.0064));
#542=CARTESIAN_POINT('',(-0.194317,0.0752564,0.0064));
#543=CARTESIAN_POINT('',(-0.194317,0.0702564,0.0064));
#544=CARTESIAN_POINT('',(-0.199317,0.0702564,0.0064));
#545=CARTESIAN_POINT('',(-0.199317,0.,0.0064));
#546=CARTESIAN_POINT('',(-0.199317,-0.0702564,0.0064));
#547=CARTESIAN_POINT('',(-0.194317,-0.0702564,0.0064));
#548=CARTESIAN_POINT('',(-0.194317,-0.0752564,0.0064));
#549=CARTESIAN_POINT('',(0.,-0.0752564,0.0064));
#550=CARTESIAN_POINT('',(-1.7000000000017E-5,-0.0752564,0.0064));
#551=CARTESIAN_POINT('',(-1.7000000000017E-5,0.,0.0064));
#552=CARTESIAN_POINT('',(-0.196084766952967,-0.0720499669529664,0.0064));
#553=CARTESIAN_POINT('',(-0.196084766952967,0.0720241669529664,0.0064));
#554=CARTESIAN_POINT('',(-0.196084766952967,-0.0720499669529664,0.0064));
#555=CARTESIAN_POINT('',(-0.194334766952967,-0.0720499669529664,0.0064));
#556=CARTESIAN_POINT('',(-0.196084766952967,0.0720241669529664,0.0064));
#557=CARTESIAN_POINT('',(-0.194334766952967,0.0720241669529664,0.0064));
#558=CARTESIAN_POINT('',(0.,0.,-0.0056));
#559=CARTESIAN_POINT('',(-0.196084766952967,-0.0720499669529664,-0.0056));
#560=CARTESIAN_POINT('',(-0.194334766952967,-0.0720499669529664,-0.0056));
#561=CARTESIAN_POINT('',(0.,0.0752564,-0.0096));
#562=CARTESIAN_POINT('',(-1.7000000000017E-5,0.0752564,-0.0096));
#563=CARTESIAN_POINT('',(-1.7000000000017E-5,0.0752564,-0.0096));
#564=CARTESIAN_POINT('',(0.,0.0752564,-0.0096));
#565=CARTESIAN_POINT('',(-0.194317,0.0752564,-0.0096));
#566=CARTESIAN_POINT('',(-0.194317,0.0752564,-0.0096));
#567=CARTESIAN_POINT('',(-0.194317,0.0702564,-0.0096));
#568=CARTESIAN_POINT('',(-0.199317,0.0702564,-0.0096));
#569=CARTESIAN_POINT('',(-0.199317,0.0702564,-0.0096));
#570=CARTESIAN_POINT('',(-0.194317,0.0702564,-0.0096));
#571=CARTESIAN_POINT('',(-0.199317,0.,-0.0096));
#572=CARTESIAN_POINT('',(-0.199317,-0.0702564,-0.0096));
#573=CARTESIAN_POINT('',(-0.199317,-0.0702564,-0.0096));
#574=CARTESIAN_POINT('',(-0.199317,0.,-0.0096));
#575=CARTESIAN_POINT('',(-0.194317,-0.0702564,-0.0096));
#576=CARTESIAN_POINT('',(-0.194317,-0.0752564,-0.0096));
#577=CARTESIAN_POINT('',(-0.194317,-0.0752564,-0.0096));
#578=CARTESIAN_POINT('',(-0.194317,-0.0702564,-0.0096));
#579=CARTESIAN_POINT('',(0.,-0.0752564,-0.0096));
#580=CARTESIAN_POINT('',(0.,-0.0752564,-0.0096));
#581=CARTESIAN_POINT('',(-1.7000000000017E-5,-0.0752564,-0.0096));
#582=CARTESIAN_POINT('',(-1.7000000000017E-5,-0.0752564,-0.0096));
#583=CARTESIAN_POINT('',(-0.1887611,0.0543029,-0.0096));
#584=CARTESIAN_POINT('',(-0.1887611,0.0543029,-0.0096));
#585=CARTESIAN_POINT('',(-0.1872611,0.0543029,-0.0096));
#586=CARTESIAN_POINT('',(-0.1887611,-0.0647521,-0.0096));
#587=CARTESIAN_POINT('',(-0.1887611,-0.0647521,-0.0096));
#588=CARTESIAN_POINT('',(-0.1872611,-0.0647521,-0.0096));
#589=CARTESIAN_POINT('',(0.,0.,-0.0096));
#590=CARTESIAN_POINT('',(-1.7000000000017E-5,0.,-0.0096));
#591=CARTESIAN_POINT('',(-0.196084766952967,-0.0720499669529664,0.0194));
#592=CARTESIAN_POINT('',(-0.196084766952967,0.0720241669529664,0.0194));
#593=CARTESIAN_POINT('',(-0.196084766952967,-0.0720499669529664,0.0064));
#594=CARTESIAN_POINT('',(-0.196084766952967,0.0720241669529664,0.0064));
#595=CARTESIAN_POINT('',(-1.7000000000017E-5,0.,-0.0016));
#596=MECHANICAL_DESIGN_GEOMETRIC_PRESENTATION_REPRESENTATION('',(#349),
#597);
#597=(
GEOMETRIC_REPRESENTATION_CONTEXT(3)
GLOBAL_UNCERTAINTY_ASSIGNED_CONTEXT((#598))
GLOBAL_UNIT_ASSIGNED_CONTEXT((#601,#600,#599))
REPRESENTATION_CONTEXT('Left bottom case','TOP_LEVEL_ASSEMBLY_PART')
);
#598=UNCERTAINTY_MEASURE_WITH_UNIT(LENGTH_MEASURE(1.E-8),#601,
'DISTANCE_ACCURACY_VALUE','Maximum Tolerance applied to model');
#599=(
NAMED_UNIT(*)
SI_UNIT($,.STERADIAN.)
SOLID_ANGLE_UNIT()
);
#600=(
NAMED_UNIT(*)
PLANE_ANGLE_UNIT()
SI_UNIT($,.RADIAN.)
);
#601=(
LENGTH_UNIT()
NAMED_UNIT(*)
SI_UNIT($,.METRE.)
);
#602=PRODUCT_DEFINITION_SHAPE('','',#603);
#603=PRODUCT_DEFINITION('','',#605,#604);
#604=PRODUCT_DEFINITION_CONTEXT('',#611,'design');
#605=PRODUCT_DEFINITION_FORMATION_WITH_SPECIFIED_SOURCE('','',#607,
 .NOT_KNOWN.);
#606=PRODUCT_RELATED_PRODUCT_CATEGORY('','',(#607));
#607=PRODUCT('Left bottom case','Left bottom case','Left bottom case',(#609));
#608=PRODUCT_CATEGORY('','');
#609=PRODUCT_CONTEXT('',#611,'mechanical');
#610=APPLICATION_PROTOCOL_DEFINITION('international standard',
'ap242_managed_model_based_3d_engineering',2020,#611);
#611=APPLICATION_CONTEXT('managed model based 3d engineering');
ENDSEC;
END-ISO-10303-21;
