ISO-10303-21;
HEADER;
/* Generated by software containing ST-Developer
 * from STEP Tools, Inc. (www.steptools.com) 
 */
/* OPTION: using custom renumber hook */

FILE_DESCRIPTION(
/* description */ ('STEP AP242 Edition 2',
'CAx-IF Rec.Pracs.---Representation and Presentation of Product Manufa
cturing Information (PMI)---4.0---2014-10-13',
'CAx-IF Rec.Pracs.---3D Tessellated Geometry---0.4---2014-09-14','2;1',
'CAx-IF Rec.Pracs.---User Defined Attributes---1.5---2016-08-15'),
/* implementation_level */ '2;1');

FILE_NAME(
/* name */ 'Part Studio 1 - Right bottom case',
/* time_stamp */ '2026-09-16T09:47:08Z',
/* author */ (''),
/* organization */ (''),
/* preprocessor_version */ 'ST-DEVELOPER v20',
/* originating_system */ 'ONSHAPE BY PTC INC, 1.220',
/* authorisation */ '  ');

FILE_SCHEMA (('AP242_MANAGED_MODEL_BASED_3D_ENGINEERING_MIM_LF { 1 0 10303 442 3 1 4 }'));
ENDSEC;

DATA;
#10=SHAPE_REPRESENTATION_RELATIONSHIP('','',#443,#11);
#11=ADVANCED_BREP_SHAPE_REPRESENTATION('',(#441),#729);
#12=CYLINDRICAL_SURFACE('',#450,0.002);
#13=CYLINDRICAL_SURFACE('',#454,0.002);
#14=CYLINDRICAL_SURFACE('',#457,0.00175);
#15=CYLINDRICAL_SURFACE('',#459,0.00175);
#16=CYLINDRICAL_SURFACE('',#464,0.00500000000000009);
#17=CYLINDRICAL_SURFACE('',#468,0.0050000000000001);
#18=CYLINDRICAL_SURFACE('',#471,0.0015);
#19=CYLINDRICAL_SURFACE('',#474,0.0015);
#20=CIRCLE('',#447,0.00175);
#21=CIRCLE('',#449,0.00175);
#22=CIRCLE('',#451,0.002);
#23=CIRCLE('',#452,0.002);
#24=CIRCLE('',#455,0.002);
#25=CIRCLE('',#456,0.002);
#26=CIRCLE('',#458,0.00175);
#27=CIRCLE('',#460,0.00175);
#28=CIRCLE('',#465,0.00500000000000009);
#29=CIRCLE('',#466,0.00500000000000009);
#30=CIRCLE('',#469,0.0050000000000001);
#31=CIRCLE('',#470,0.0050000000000001);
#32=CIRCLE('',#472,0.0015);
#33=CIRCLE('',#473,0.0015);
#34=CIRCLE('',#475,0.0015);
#35=CIRCLE('',#476,0.0015);
#36=ORIENTED_EDGE('',*,*,#148,.F.);
#37=ORIENTED_EDGE('',*,*,#149,.T.);
#38=ORIENTED_EDGE('',*,*,#150,.F.);
#39=ORIENTED_EDGE('',*,*,#151,.F.);
#40=ORIENTED_EDGE('',*,*,#152,.T.);
#41=ORIENTED_EDGE('',*,*,#153,.T.);
#42=ORIENTED_EDGE('',*,*,#154,.F.);
#43=ORIENTED_EDGE('',*,*,#155,.F.);
#44=ORIENTED_EDGE('',*,*,#156,.T.);
#45=ORIENTED_EDGE('',*,*,#157,.T.);
#46=ORIENTED_EDGE('',*,*,#158,.T.);
#47=ORIENTED_EDGE('',*,*,#159,.F.);
#48=ORIENTED_EDGE('',*,*,#160,.F.);
#49=ORIENTED_EDGE('',*,*,#161,.T.);
#50=ORIENTED_EDGE('',*,*,#161,.F.);
#51=ORIENTED_EDGE('',*,*,#162,.F.);
#52=ORIENTED_EDGE('',*,*,#163,.T.);
#53=ORIENTED_EDGE('',*,*,#164,.T.);
#54=ORIENTED_EDGE('',*,*,#165,.T.);
#55=ORIENTED_EDGE('',*,*,#163,.F.);
#56=ORIENTED_EDGE('',*,*,#166,.F.);
#57=ORIENTED_EDGE('',*,*,#167,.T.);
#58=ORIENTED_EDGE('',*,*,#156,.F.);
#59=ORIENTED_EDGE('',*,*,#168,.F.);
#60=ORIENTED_EDGE('',*,*,#157,.F.);
#61=ORIENTED_EDGE('',*,*,#169,.F.);
#62=ORIENTED_EDGE('',*,*,#170,.T.);
#63=ORIENTED_EDGE('',*,*,#171,.T.);
#64=ORIENTED_EDGE('',*,*,#172,.F.);
#65=ORIENTED_EDGE('',*,*,#173,.F.);
#66=ORIENTED_EDGE('',*,*,#174,.T.);
#67=ORIENTED_EDGE('',*,*,#175,.F.);
#68=ORIENTED_EDGE('',*,*,#176,.F.);
#69=ORIENTED_EDGE('',*,*,#172,.T.);
#70=ORIENTED_EDGE('',*,*,#177,.T.);
#71=ORIENTED_EDGE('',*,*,#175,.T.);
#72=ORIENTED_EDGE('',*,*,#178,.F.);
#73=ORIENTED_EDGE('',*,*,#179,.F.);
#74=ORIENTED_EDGE('',*,*,#180,.T.);
#75=ORIENTED_EDGE('',*,*,#181,.F.);
#76=ORIENTED_EDGE('',*,*,#182,.F.);
#77=ORIENTED_EDGE('',*,*,#183,.T.);
#78=ORIENTED_EDGE('',*,*,#184,.T.);
#79=ORIENTED_EDGE('',*,*,#185,.T.);
#80=ORIENTED_EDGE('',*,*,#180,.F.);
#81=ORIENTED_EDGE('',*,*,#186,.F.);
#82=ORIENTED_EDGE('',*,*,#187,.T.);
#83=ORIENTED_EDGE('',*,*,#188,.F.);
#84=ORIENTED_EDGE('',*,*,#184,.F.);
#85=ORIENTED_EDGE('',*,*,#189,.T.);
#86=ORIENTED_EDGE('',*,*,#190,.F.);
#87=ORIENTED_EDGE('',*,*,#191,.T.);
#88=ORIENTED_EDGE('',*,*,#192,.F.);
#89=ORIENTED_EDGE('',*,*,#193,.T.);
#90=ORIENTED_EDGE('',*,*,#192,.T.);
#91=ORIENTED_EDGE('',*,*,#190,.T.);
#92=ORIENTED_EDGE('',*,*,#152,.F.);
#93=ORIENTED_EDGE('',*,*,#194,.F.);
#94=ORIENTED_EDGE('',*,*,#189,.F.);
#95=ORIENTED_EDGE('',*,*,#186,.T.);
#96=ORIENTED_EDGE('',*,*,#183,.F.);
#97=ORIENTED_EDGE('',*,*,#195,.T.);
#98=ORIENTED_EDGE('',*,*,#153,.F.);
#99=ORIENTED_EDGE('',*,*,#195,.F.);
#100=ORIENTED_EDGE('',*,*,#182,.T.);
#101=ORIENTED_EDGE('',*,*,#196,.T.);
#102=ORIENTED_EDGE('',*,*,#194,.T.);
#103=ORIENTED_EDGE('',*,*,#151,.T.);
#104=ORIENTED_EDGE('',*,*,#197,.F.);
#105=ORIENTED_EDGE('',*,*,#178,.T.);
#106=ORIENTED_EDGE('',*,*,#174,.F.);
#107=ORIENTED_EDGE('',*,*,#171,.F.);
#108=ORIENTED_EDGE('',*,*,#198,.F.);
#109=ORIENTED_EDGE('',*,*,#187,.F.);
#110=ORIENTED_EDGE('',*,*,#169,.T.);
#111=ORIENTED_EDGE('',*,*,#168,.T.);
#112=ORIENTED_EDGE('',*,*,#199,.F.);
#113=ORIENTED_EDGE('',*,*,#154,.T.);
#114=ORIENTED_EDGE('',*,*,#196,.F.);
#115=ORIENTED_EDGE('',*,*,#181,.T.);
#116=ORIENTED_EDGE('',*,*,#185,.F.);
#117=ORIENTED_EDGE('',*,*,#188,.T.);
#118=ORIENTED_EDGE('',*,*,#198,.T.);
#119=ORIENTED_EDGE('',*,*,#170,.F.);
#120=ORIENTED_EDGE('',*,*,#200,.T.);
#121=ORIENTED_EDGE('',*,*,#166,.T.);
#122=ORIENTED_EDGE('',*,*,#162,.T.);
#123=ORIENTED_EDGE('',*,*,#160,.T.);
#124=ORIENTED_EDGE('',*,*,#197,.T.);
#125=ORIENTED_EDGE('',*,*,#150,.T.);
#126=ORIENTED_EDGE('',*,*,#201,.T.);
#127=ORIENTED_EDGE('',*,*,#179,.T.);
#128=ORIENTED_EDGE('',*,*,#191,.F.);
#129=ORIENTED_EDGE('',*,*,#193,.F.);
#130=ORIENTED_EDGE('',*,*,#202,.F.);
#131=ORIENTED_EDGE('',*,*,#148,.T.);
#132=ORIENTED_EDGE('',*,*,#203,.T.);
#133=ORIENTED_EDGE('',*,*,#158,.F.);
#134=ORIENTED_EDGE('',*,*,#164,.F.);
#135=ORIENTED_EDGE('',*,*,#165,.F.);
#136=ORIENTED_EDGE('',*,*,#203,.F.);
#137=ORIENTED_EDGE('',*,*,#155,.T.);
#138=ORIENTED_EDGE('',*,*,#199,.T.);
#139=ORIENTED_EDGE('',*,*,#159,.T.);
#140=ORIENTED_EDGE('',*,*,#149,.F.);
#141=ORIENTED_EDGE('',*,*,#202,.T.);
#142=ORIENTED_EDGE('',*,*,#167,.F.);
#143=ORIENTED_EDGE('',*,*,#200,.F.);
#144=ORIENTED_EDGE('',*,*,#173,.T.);
#145=ORIENTED_EDGE('',*,*,#176,.T.);
#146=ORIENTED_EDGE('',*,*,#177,.F.);
#147=ORIENTED_EDGE('',*,*,#201,.F.);
#148=EDGE_CURVE('',#204,#205,#244,.T.);
#149=EDGE_CURVE('',#204,#206,#245,.T.);
#150=EDGE_CURVE('',#207,#206,#246,.T.);
#151=EDGE_CURVE('',#208,#207,#247,.T.);
#152=EDGE_CURVE('',#208,#209,#248,.T.);
#153=EDGE_CURVE('',#209,#210,#249,.T.);
#154=EDGE_CURVE('',#211,#210,#250,.T.);
#155=EDGE_CURVE('',#205,#211,#251,.T.);
#156=EDGE_CURVE('',#212,#212,#20,.T.);
#157=EDGE_CURVE('',#213,#213,#21,.T.);
#158=EDGE_CURVE('',#214,#215,#22,.T.);
#159=EDGE_CURVE('',#216,#215,#252,.T.);
#160=EDGE_CURVE('',#217,#216,#23,.T.);
#161=EDGE_CURVE('',#217,#214,#253,.T.);
#162=EDGE_CURVE('',#218,#217,#254,.T.);
#163=EDGE_CURVE('',#218,#219,#255,.T.);
#164=EDGE_CURVE('',#219,#214,#256,.T.);
#165=EDGE_CURVE('',#220,#219,#24,.T.);
#166=EDGE_CURVE('',#221,#218,#25,.T.);
#167=EDGE_CURVE('',#221,#220,#257,.T.);
#168=EDGE_CURVE('',#222,#222,#26,.F.);
#169=EDGE_CURVE('',#223,#223,#27,.F.);
#170=EDGE_CURVE('',#224,#225,#258,.T.);
#171=EDGE_CURVE('',#225,#226,#259,.T.);
#172=EDGE_CURVE('',#227,#226,#260,.T.);
#173=EDGE_CURVE('',#224,#227,#261,.F.);
#174=EDGE_CURVE('',#226,#228,#262,.T.);
#175=EDGE_CURVE('',#229,#228,#263,.T.);
#176=EDGE_CURVE('',#227,#229,#264,.F.);
#177=EDGE_CURVE('',#230,#229,#265,.T.);
#178=EDGE_CURVE('',#231,#228,#266,.T.);
#179=EDGE_CURVE('',#230,#231,#267,.T.);
#180=EDGE_CURVE('',#232,#233,#268,.T.);
#181=EDGE_CURVE('',#234,#233,#28,.T.);
#182=EDGE_CURVE('',#235,#234,#269,.T.);
#183=EDGE_CURVE('',#235,#232,#29,.T.);
#184=EDGE_CURVE('',#236,#237,#270,.T.);
#185=EDGE_CURVE('',#237,#233,#271,.T.);
#186=EDGE_CURVE('',#236,#232,#272,.T.);
#187=EDGE_CURVE('',#238,#239,#273,.T.);
#188=EDGE_CURVE('',#237,#239,#30,.T.);
#189=EDGE_CURVE('',#236,#238,#31,.T.);
#190=EDGE_CURVE('',#240,#240,#32,.T.);
#191=EDGE_CURVE('',#241,#241,#33,.T.);
#192=EDGE_CURVE('',#242,#242,#34,.T.);
#193=EDGE_CURVE('',#243,#243,#35,.T.);
#194=EDGE_CURVE('',#238,#208,#274,.T.);
#195=EDGE_CURVE('',#235,#209,#275,.T.);
#196=EDGE_CURVE('',#234,#210,#276,.T.);
#197=EDGE_CURVE('',#231,#207,#277,.T.);
#198=EDGE_CURVE('',#239,#225,#278,.T.);
#199=EDGE_CURVE('',#211,#216,#279,.T.);
#200=EDGE_CURVE('',#224,#221,#280,.T.);
#201=EDGE_CURVE('',#206,#230,#281,.T.);
#202=EDGE_CURVE('',#204,#220,#282,.T.);
#203=EDGE_CURVE('',#205,#215,#283,.T.);
#204=VERTEX_POINT('',#610);
#205=VERTEX_POINT('',#611);
#206=VERTEX_POINT('',#613);
#207=VERTEX_POINT('',#615);
#208=VERTEX_POINT('',#617);
#209=VERTEX_POINT('',#619);
#210=VERTEX_POINT('',#621);
#211=VERTEX_POINT('',#623);
#212=VERTEX_POINT('',#627);
#213=VERTEX_POINT('',#630);
#214=VERTEX_POINT('',#633);
#215=VERTEX_POINT('',#634);
#216=VERTEX_POINT('',#636);
#217=VERTEX_POINT('',#638);
#218=VERTEX_POINT('',#642);
#219=VERTEX_POINT('',#644);
#220=VERTEX_POINT('',#648);
#221=VERTEX_POINT('',#650);
#222=VERTEX_POINT('',#654);
#223=VERTEX_POINT('',#657);
#224=VERTEX_POINT('',#660);
#225=VERTEX_POINT('',#661);
#226=VERTEX_POINT('',#663);
#227=VERTEX_POINT('',#665);
#228=VERTEX_POINT('',#669);
#229=VERTEX_POINT('',#671);
#230=VERTEX_POINT('',#675);
#231=VERTEX_POINT('',#677);
#232=VERTEX_POINT('',#681);
#233=VERTEX_POINT('',#682);
#234=VERTEX_POINT('',#684);
#235=VERTEX_POINT('',#686);
#236=VERTEX_POINT('',#690);
#237=VERTEX_POINT('',#691);
#238=VERTEX_POINT('',#696);
#239=VERTEX_POINT('',#697);
#240=VERTEX_POINT('',#702);
#241=VERTEX_POINT('',#704);
#242=VERTEX_POINT('',#707);
#243=VERTEX_POINT('',#709);
#244=LINE('',#609,#284);
#245=LINE('',#612,#285);
#246=LINE('',#614,#286);
#247=LINE('',#616,#287);
#248=LINE('',#618,#288);
#249=LINE('',#620,#289);
#250=LINE('',#622,#290);
#251=LINE('',#624,#291);
#252=LINE('',#635,#292);
#253=LINE('',#639,#293);
#254=LINE('',#641,#294);
#255=LINE('',#643,#295);
#256=LINE('',#645,#296);
#257=LINE('',#651,#297);
#258=LINE('',#659,#298);
#259=LINE('',#662,#299);
#260=LINE('',#664,#300);
#261=LINE('',#666,#301);
#262=LINE('',#668,#302);
#263=LINE('',#670,#303);
#264=LINE('',#672,#304);
#265=LINE('',#674,#305);
#266=LINE('',#676,#306);
#267=LINE('',#678,#307);
#268=LINE('',#680,#308);
#269=LINE('',#685,#309);
#270=LINE('',#689,#310);
#271=LINE('',#692,#311);
#272=LINE('',#693,#312);
#273=LINE('',#695,#313);
#274=LINE('',#711,#314);
#275=LINE('',#712,#315);
#276=LINE('',#714,#316);
#277=LINE('',#716,#317);
#278=LINE('',#717,#318);
#279=LINE('',#719,#319);
#280=LINE('',#720,#320);
#281=LINE('',#722,#321);
#282=LINE('',#724,#322);
#283=LINE('',#725,#323);
#284=VECTOR('',#489,1.);
#285=VECTOR('',#490,1.);
#286=VECTOR('',#491,1.);
#287=VECTOR('',#492,1.);
#288=VECTOR('',#493,1.);
#289=VECTOR('',#494,1.);
#290=VECTOR('',#495,1.);
#291=VECTOR('',#496,1.);
#292=VECTOR('',#509,1.);
#293=VECTOR('',#512,1.);
#294=VECTOR('',#515,1.);
#295=VECTOR('',#516,1.);
#296=VECTOR('',#517,1.);
#297=VECTOR('',#524,1.);
#298=VECTOR('',#535,1.);
#299=VECTOR('',#536,1.);
#300=VECTOR('',#537,1.);
#301=VECTOR('',#538,1.);
#302=VECTOR('',#541,1.);
#303=VECTOR('',#542,1.);
#304=VECTOR('',#543,1.);
#305=VECTOR('',#546,1.);
#306=VECTOR('',#547,1.);
#307=VECTOR('',#548,1.);
#308=VECTOR('',#551,1.);
#309=VECTOR('',#554,1.);
#310=VECTOR('',#559,1.);
#311=VECTOR('',#560,1.);
#312=VECTOR('',#561,1.);
#313=VECTOR('',#564,1.);
#314=VECTOR('',#583,1.);
#315=VECTOR('',#584,1.);
#316=VECTOR('',#587,1.);
#317=VECTOR('',#590,1.);
#318=VECTOR('',#591,1.);
#319=VECTOR('',#594,1.);
#320=VECTOR('',#595,1.);
#321=VECTOR('',#598,1.);
#322=VECTOR('',#601,1.);
#323=VECTOR('',#602,1.);
#324=EDGE_LOOP('',(#36,#37,#38,#39,#40,#41,#42,#43));
#325=EDGE_LOOP('',(#44));
#326=EDGE_LOOP('',(#45));
#327=EDGE_LOOP('',(#46,#47,#48,#49));
#328=EDGE_LOOP('',(#50,#51,#52,#53));
#329=EDGE_LOOP('',(#54,#55,#56,#57));
#330=EDGE_LOOP('',(#58));
#331=EDGE_LOOP('',(#59));
#332=EDGE_LOOP('',(#60));
#333=EDGE_LOOP('',(#61));
#334=EDGE_LOOP('',(#62,#63,#64,#65));
#335=EDGE_LOOP('',(#66,#67,#68,#69));
#336=EDGE_LOOP('',(#70,#71,#72,#73));
#337=EDGE_LOOP('',(#74,#75,#76,#77));
#338=EDGE_LOOP('',(#78,#79,#80,#81));
#339=EDGE_LOOP('',(#82,#83,#84,#85));
#340=EDGE_LOOP('',(#86));
#341=EDGE_LOOP('',(#87));
#342=EDGE_LOOP('',(#88));
#343=EDGE_LOOP('',(#89));
#344=EDGE_LOOP('',(#90));
#345=EDGE_LOOP('',(#91));
#346=EDGE_LOOP('',(#92,#93,#94,#95,#96,#97));
#347=EDGE_LOOP('',(#98,#99,#100,#101));
#348=EDGE_LOOP('',(#102,#103,#104,#105,#106,#107,#108,#109));
#349=EDGE_LOOP('',(#110));
#350=EDGE_LOOP('',(#111));
#351=EDGE_LOOP('',(#112,#113,#114,#115,#116,#117,#118,#119,#120,#121,#122,
#123));
#352=EDGE_LOOP('',(#124,#125,#126,#127));
#353=EDGE_LOOP('',(#128));
#354=EDGE_LOOP('',(#129));
#355=EDGE_LOOP('',(#130,#131,#132,#133,#134,#135));
#356=EDGE_LOOP('',(#136,#137,#138,#139));
#357=EDGE_LOOP('',(#140,#141,#142,#143,#144,#145,#146,#147));
#358=FACE_BOUND('',#324,.T.);
#359=FACE_BOUND('',#325,.T.);
#360=FACE_BOUND('',#326,.T.);
#361=FACE_BOUND('',#327,.T.);
#362=FACE_BOUND('',#328,.T.);
#363=FACE_BOUND('',#329,.T.);
#364=FACE_BOUND('',#330,.T.);
#365=FACE_BOUND('',#331,.T.);
#366=FACE_BOUND('',#332,.T.);
#367=FACE_BOUND('',#333,.T.);
#368=FACE_BOUND('',#334,.T.);
#369=FACE_BOUND('',#335,.T.);
#370=FACE_BOUND('',#336,.T.);
#371=FACE_BOUND('',#337,.T.);
#372=FACE_BOUND('',#338,.T.);
#373=FACE_BOUND('',#339,.T.);
#374=FACE_BOUND('',#340,.T.);
#375=FACE_BOUND('',#341,.T.);
#376=FACE_BOUND('',#342,.T.);
#377=FACE_BOUND('',#343,.T.);
#378=FACE_BOUND('',#344,.T.);
#379=FACE_BOUND('',#345,.T.);
#380=FACE_BOUND('',#346,.T.);
#381=FACE_BOUND('',#347,.T.);
#382=FACE_BOUND('',#348,.T.);
#383=FACE_BOUND('',#349,.T.);
#384=FACE_BOUND('',#350,.T.);
#385=FACE_BOUND('',#351,.T.);
#386=FACE_BOUND('',#352,.T.);
#387=FACE_BOUND('',#353,.T.);
#388=FACE_BOUND('',#354,.T.);
#389=FACE_BOUND('',#355,.T.);
#390=FACE_BOUND('',#356,.T.);
#391=FACE_BOUND('',#357,.T.);
#392=PLANE('',#445);
#393=PLANE('',#446);
#394=PLANE('',#448);
#395=PLANE('',#453);
#396=PLANE('',#461);
#397=PLANE('',#462);
#398=PLANE('',#463);
#399=PLANE('',#467);
#400=PLANE('',#477);
#401=PLANE('',#478);
#402=PLANE('',#479);
#403=PLANE('',#480);
#404=PLANE('',#481);
#405=PLANE('',#482);
#406=PLANE('',#483);
#407=PLANE('',#484);
#408=ADVANCED_FACE('',(#358),#392,.T.);
#409=ADVANCED_FACE('',(#359),#393,.T.);
#410=ADVANCED_FACE('',(#360),#394,.T.);
#411=ADVANCED_FACE('',(#361),#12,.T.);
#412=ADVANCED_FACE('',(#362),#395,.F.);
#413=ADVANCED_FACE('',(#363),#13,.T.);
#414=ADVANCED_FACE('',(#364,#365),#14,.F.);
#415=ADVANCED_FACE('',(#366,#367),#15,.F.);
#416=ADVANCED_FACE('',(#368),#396,.F.);
#417=ADVANCED_FACE('',(#369),#397,.F.);
#418=ADVANCED_FACE('',(#370),#398,.T.);
#419=ADVANCED_FACE('',(#371),#16,.T.);
#420=ADVANCED_FACE('',(#372),#399,.F.);
#421=ADVANCED_FACE('',(#373),#17,.T.);
#422=ADVANCED_FACE('',(#374,#375),#18,.F.);
#423=ADVANCED_FACE('',(#376,#377),#19,.F.);
#424=ADVANCED_FACE('',(#378,#379,#380),#400,.F.);
#425=ADVANCED_FACE('',(#381),#401,.F.);
#426=ADVANCED_FACE('',(#382),#402,.T.);
#427=ADVANCED_FACE('',(#383,#384,#385),#403,.T.);
#428=ADVANCED_FACE('',(#386),#404,.T.);
#429=ADVANCED_FACE('',(#387,#388,#389),#405,.T.);
#430=ADVANCED_FACE('',(#390),#406,.T.);
#431=ADVANCED_FACE('',(#391),#407,.F.);
#432=CLOSED_SHELL('',(#408,#409,#410,#411,#412,#413,#414,#415,#416,#417,
#418,#419,#420,#421,#422,#423,#424,#425,#426,#427,#428,#429,#430,#431));
#433=STYLED_ITEM('',(#434),#441);
#434=PRESENTATION_STYLE_ASSIGNMENT((#435));
#435=SURFACE_STYLE_USAGE(.BOTH.,#436);
#436=SURFACE_SIDE_STYLE('',(#437));
#437=SURFACE_STYLE_FILL_AREA(#438);
#438=FILL_AREA_STYLE('',(#439));
#439=FILL_AREA_STYLE_COLOUR('',#440);
#440=COLOUR_RGB('',0.231372549019608,0.380392156862745,0.705882352941177);
#441=MANIFOLD_SOLID_BREP('Right bottom case',#432);
#442=SHAPE_DEFINITION_REPRESENTATION(#734,#443);
#443=SHAPE_REPRESENTATION('Right bottom case',(#444),#729);
#444=AXIS2_PLACEMENT_3D('',#607,#485,#486);
#445=AXIS2_PLACEMENT_3D('',#608,#487,#488);
#446=AXIS2_PLACEMENT_3D('',#625,#497,#498);
#447=AXIS2_PLACEMENT_3D('',#626,#499,#500);
#448=AXIS2_PLACEMENT_3D('',#628,#501,#502);
#449=AXIS2_PLACEMENT_3D('',#629,#503,#504);
#450=AXIS2_PLACEMENT_3D('',#631,#505,#506);
#451=AXIS2_PLACEMENT_3D('',#632,#507,#508);
#452=AXIS2_PLACEMENT_3D('',#637,#510,#511);
#453=AXIS2_PLACEMENT_3D('',#640,#513,#514);
#454=AXIS2_PLACEMENT_3D('',#646,#518,#519);
#455=AXIS2_PLACEMENT_3D('',#647,#520,#521);
#456=AXIS2_PLACEMENT_3D('',#649,#522,#523);
#457=AXIS2_PLACEMENT_3D('',#652,#525,#526);
#458=AXIS2_PLACEMENT_3D('',#653,#527,#528);
#459=AXIS2_PLACEMENT_3D('',#655,#529,#530);
#460=AXIS2_PLACEMENT_3D('',#656,#531,#532);
#461=AXIS2_PLACEMENT_3D('',#658,#533,#534);
#462=AXIS2_PLACEMENT_3D('',#667,#539,#540);
#463=AXIS2_PLACEMENT_3D('',#673,#544,#545);
#464=AXIS2_PLACEMENT_3D('',#679,#549,#550);
#465=AXIS2_PLACEMENT_3D('',#683,#552,#553);
#466=AXIS2_PLACEMENT_3D('',#687,#555,#556);
#467=AXIS2_PLACEMENT_3D('',#688,#557,#558);
#468=AXIS2_PLACEMENT_3D('',#694,#562,#563);
#469=AXIS2_PLACEMENT_3D('',#698,#565,#566);
#470=AXIS2_PLACEMENT_3D('',#699,#567,#568);
#471=AXIS2_PLACEMENT_3D('',#700,#569,#570);
#472=AXIS2_PLACEMENT_3D('',#701,#571,#572);
#473=AXIS2_PLACEMENT_3D('',#703,#573,#574);
#474=AXIS2_PLACEMENT_3D('',#705,#575,#576);
#475=AXIS2_PLACEMENT_3D('',#706,#577,#578);
#476=AXIS2_PLACEMENT_3D('',#708,#579,#580);
#477=AXIS2_PLACEMENT_3D('',#710,#581,#582);
#478=AXIS2_PLACEMENT_3D('',#713,#585,#586);
#479=AXIS2_PLACEMENT_3D('',#715,#588,#589);
#480=AXIS2_PLACEMENT_3D('',#718,#592,#593);
#481=AXIS2_PLACEMENT_3D('',#721,#596,#597);
#482=AXIS2_PLACEMENT_3D('',#723,#599,#600);
#483=AXIS2_PLACEMENT_3D('',#726,#603,#604);
#484=AXIS2_PLACEMENT_3D('',#727,#605,#606);
#485=DIRECTION('',(0.,0.,1.));
#486=DIRECTION('',(1.,0.,0.));
#487=DIRECTION('',(-1.,0.,0.));
#488=DIRECTION('',(0.,-1.,0.));
#489=DIRECTION('',(0.,-1.,0.));
#490=DIRECTION('',(0.,0.,1.));
#491=DIRECTION('',(0.,-1.,0.));
#492=DIRECTION('',(0.,0.,1.));
#493=DIRECTION('',(0.,-1.,0.));
#494=DIRECTION('',(0.,0.,1.));
#495=DIRECTION('',(0.,-1.,0.));
#496=DIRECTION('',(0.,0.,1.));
#497=DIRECTION('',(0.,0.,1.));
#498=DIRECTION('',(1.,0.,0.));
#499=DIRECTION('',(0.,0.,1.));
#500=DIRECTION('',(1.,0.,0.));
#501=DIRECTION('',(0.,0.,1.));
#502=DIRECTION('',(1.,0.,0.));
#503=DIRECTION('',(0.,0.,1.));
#504=DIRECTION('',(1.,0.,0.));
#505=DIRECTION('',(0.,0.,-1.));
#506=DIRECTION('',(-1.,0.,0.));
#507=DIRECTION('',(0.,0.,1.));
#508=DIRECTION('',(1.,0.,0.));
#509=DIRECTION('',(0.,0.,-1.));
#510=DIRECTION('',(0.,0.,1.));
#511=DIRECTION('',(1.,0.,0.));
#512=DIRECTION('',(0.,0.,-1.));
#513=DIRECTION('',(1.,0.,0.));
#514=DIRECTION('',(0.,0.,-1.));
#515=DIRECTION('',(0.,-1.,0.));
#516=DIRECTION('',(0.,0.,-1.));
#517=DIRECTION('',(0.,-1.,0.));
#518=DIRECTION('',(0.,0.,-1.));
#519=DIRECTION('',(-1.,0.,0.));
#520=DIRECTION('',(0.,0.,1.));
#521=DIRECTION('',(1.,0.,0.));
#522=DIRECTION('',(0.,0.,1.));
#523=DIRECTION('',(1.,0.,0.));
#524=DIRECTION('',(0.,0.,-1.));
#525=DIRECTION('',(0.,0.,-1.));
#526=DIRECTION('',(-1.,0.,0.));
#527=DIRECTION('',(0.,0.,1.));
#528=DIRECTION('',(1.,0.,0.));
#529=DIRECTION('',(0.,0.,-1.));
#530=DIRECTION('',(-1.,0.,0.));
#531=DIRECTION('',(0.,0.,1.));
#532=DIRECTION('',(1.,0.,0.));
#533=DIRECTION('',(1.,0.,0.));
#534=DIRECTION('',(0.,0.,-1.));
#535=DIRECTION('',(0.,1.,0.));
#536=DIRECTION('',(0.,0.,-1.));
#537=DIRECTION('',(0.,1.,0.));
#538=DIRECTION('',(0.,0.,1.));
#539=DIRECTION('',(0.,0.,-1.));
#540=DIRECTION('',(-1.,0.,0.));
#541=DIRECTION('',(-1.,0.,0.));
#542=DIRECTION('',(0.,1.,0.));
#543=DIRECTION('',(1.,0.,0.));
#544=DIRECTION('',(1.,0.,0.));
#545=DIRECTION('',(0.,0.,-1.));
#546=DIRECTION('',(0.,0.,-1.));
#547=DIRECTION('',(0.,0.,-1.));
#548=DIRECTION('',(0.,1.,0.));
#549=DIRECTION('',(0.,0.,1.));
#550=DIRECTION('',(1.,0.,0.));
#551=DIRECTION('',(0.,0.,1.));
#552=DIRECTION('',(0.,0.,1.));
#553=DIRECTION('',(1.,0.,0.));
#554=DIRECTION('',(0.,0.,1.));
#555=DIRECTION('',(0.,0.,1.));
#556=DIRECTION('',(1.,0.,0.));
#557=DIRECTION('',(-1.,0.,0.));
#558=DIRECTION('',(0.,0.,1.));
#559=DIRECTION('',(0.,0.,1.));
#560=DIRECTION('',(0.,-1.,0.));
#561=DIRECTION('',(0.,-1.,0.));
#562=DIRECTION('',(0.,0.,1.));
#563=DIRECTION('',(1.,0.,0.));
#564=DIRECTION('',(0.,0.,1.));
#565=DIRECTION('',(0.,0.,1.));
#566=DIRECTION('',(1.,0.,0.));
#567=DIRECTION('',(0.,0.,1.));
#568=DIRECTION('',(1.,0.,0.));
#569=DIRECTION('',(0.,0.,1.));
#570=DIRECTION('',(1.,0.,0.));
#571=DIRECTION('',(0.,0.,1.));
#572=DIRECTION('',(1.,0.,0.));
#573=DIRECTION('',(0.,0.,1.));
#574=DIRECTION('',(1.,0.,0.));
#575=DIRECTION('',(0.,0.,1.));
#576=DIRECTION('',(1.,0.,0.));
#577=DIRECTION('',(0.,0.,1.));
#578=DIRECTION('',(1.,0.,0.));
#579=DIRECTION('',(0.,0.,1.));
#580=DIRECTION('',(1.,0.,0.));
#581=DIRECTION('',(0.,0.,1.));
#582=DIRECTION('',(1.,0.,0.));
#583=DIRECTION('',(-1.,0.,0.));
#584=DIRECTION('',(-1.,0.,0.));
#585=DIRECTION('',(0.,1.,0.));
#586=DIRECTION('',(0.,0.,1.));
#587=DIRECTION('',(-1.,0.,0.));
#588=DIRECTION('',(0.,1.,0.));
#589=DIRECTION('',(0.,0.,1.));
#590=DIRECTION('',(-1.,0.,0.));
#591=DIRECTION('',(-1.,0.,0.));
#592=DIRECTION('',(0.,0.,1.));
#593=DIRECTION('',(1.,0.,0.));
#594=DIRECTION('',(1.,0.,0.));
#595=DIRECTION('',(1.,0.,0.));
#596=DIRECTION('',(0.,0.,1.));
#597=DIRECTION('',(1.,0.,0.));
#598=DIRECTION('',(1.,0.,0.));
#599=DIRECTION('',(0.,0.,1.));
#600=DIRECTION('',(1.,0.,0.));
#601=DIRECTION('',(1.,0.,0.));
#602=DIRECTION('',(1.,0.,0.));
#603=DIRECTION('',(0.,1.,0.));
#604=DIRECTION('',(0.,0.,1.));
#605=DIRECTION('',(0.,1.,0.));
#606=DIRECTION('',(0.,0.,1.));
#607=CARTESIAN_POINT('',(0.,0.,0.));
#608=CARTESIAN_POINT('',(-1.7000000000017E-5,0.,-0.0016));
#609=CARTESIAN_POINT('',(-1.7000000000017E-5,0.,-0.0056));
#610=CARTESIAN_POINT('',(-1.7000000000017E-5,0.0722565,-0.0056));
#611=CARTESIAN_POINT('',(-1.7000000000017E-5,-0.0722565,-0.0056));
#612=CARTESIAN_POINT('',(-1.7000000000017E-5,0.0722565,0.0064));
#613=CARTESIAN_POINT('',(-1.7000000000017E-5,0.0722565,0.0064));
#614=CARTESIAN_POINT('',(-1.7000000000017E-5,0.,0.0064));
#615=CARTESIAN_POINT('',(-1.7000000000017E-5,0.0752564,0.0064));
#616=CARTESIAN_POINT('',(-1.7000000000017E-5,0.0752564,-0.0096));
#617=CARTESIAN_POINT('',(-1.7000000000017E-5,0.0752564,-0.0096));
#618=CARTESIAN_POINT('',(-1.7000000000017E-5,0.,-0.0096));
#619=CARTESIAN_POINT('',(-1.7000000000017E-5,-0.0752564,-0.0096));
#620=CARTESIAN_POINT('',(-1.7000000000017E-5,-0.0752564,-0.0096));
#621=CARTESIAN_POINT('',(-1.7000000000017E-5,-0.0752564,0.0064));
#622=CARTESIAN_POINT('',(-1.7000000000017E-5,0.,0.0064));
#623=CARTESIAN_POINT('',(-1.7000000000017E-5,-0.0722565,0.0064));
#624=CARTESIAN_POINT('',(-1.7000000000017E-5,-0.0722565,0.0064));
#625=CARTESIAN_POINT('',(0.,0.,-0.0056));
#626=CARTESIAN_POINT('',(0.196084766952967,0.0720241669529664,-0.0056));
#627=CARTESIAN_POINT('',(0.197834766952967,0.0720241669529664,-0.0056));
#628=CARTESIAN_POINT('',(0.,0.,-0.0056));
#629=CARTESIAN_POINT('',(0.196082766952967,-0.0720499669529664,-0.0056));
#630=CARTESIAN_POINT('',(0.197832766952967,-0.0720499669529664,-0.0056));
#631=CARTESIAN_POINT('',(0.196082766952967,-0.0720499669529663,0.0064));
#632=CARTESIAN_POINT('',(0.196082766952967,-0.0720499669529663,-0.0056));
#633=CARTESIAN_POINT('',(0.196317,-0.0700637305924902,-0.0056));
#634=CARTESIAN_POINT('',(0.194093459510543,-0.0722565,-0.0056));
#635=CARTESIAN_POINT('',(0.194093459510543,-0.0722565,0.0064));
#636=CARTESIAN_POINT('',(0.194093459510543,-0.0722565,0.0064));
#637=CARTESIAN_POINT('',(0.196082766952967,-0.0720499669529663,0.0064));
#638=CARTESIAN_POINT('',(0.196317,-0.0700637305924902,0.0064));
#639=CARTESIAN_POINT('',(0.196317,-0.0700637305924903,0.0064));
#640=CARTESIAN_POINT('',(0.196317,0.,0.0064));
#641=CARTESIAN_POINT('',(0.196317,0.,0.0064));
#642=CARTESIAN_POINT('',(0.196317,0.0700376957571356,0.0064));
#643=CARTESIAN_POINT('',(0.196317,0.0700376957571356,0.0064));
#644=CARTESIAN_POINT('',(0.196317,0.0700376957571356,-0.0056));
#645=CARTESIAN_POINT('',(0.196317,0.,-0.0056));
#646=CARTESIAN_POINT('',(0.196084766952967,0.0720241669529664,0.0064));
#647=CARTESIAN_POINT('',(0.196084766952967,0.0720241669529664,-0.0056));
#648=CARTESIAN_POINT('',(0.19409830745042,0.0722565,-0.0056));
#649=CARTESIAN_POINT('',(0.196084766952967,0.0720241669529664,0.0064));
#650=CARTESIAN_POINT('',(0.19409830745042,0.0722565,0.0064));
#651=CARTESIAN_POINT('',(0.19409830745042,0.0722565,0.0064));
#652=CARTESIAN_POINT('',(0.196084766952967,0.0720241669529664,0.0194));
#653=CARTESIAN_POINT('',(0.196084766952967,0.0720241669529664,0.0064));
#654=CARTESIAN_POINT('',(0.197834766952967,0.0720241669529664,0.0064));
#655=CARTESIAN_POINT('',(0.196082766952967,-0.0720499669529664,0.0194));
#656=CARTESIAN_POINT('',(0.196082766952967,-0.0720499669529664,0.0064));
#657=CARTESIAN_POINT('',(0.197832766952967,-0.0720499669529664,0.0064));
#658=CARTESIAN_POINT('',(0.1304412,0.0722564,0.00636));
#659=CARTESIAN_POINT('',(0.1304412,0.,0.0064));
#660=CARTESIAN_POINT('',(0.1304412,0.0722565,0.0064));
#661=CARTESIAN_POINT('',(0.1304412,0.0752564,0.0064));
#662=CARTESIAN_POINT('',(0.1304412,0.0752564,0.00636));
#663=CARTESIAN_POINT('',(0.1304412,0.0752564,0.00136));
#664=CARTESIAN_POINT('',(0.1304412,0.0722564,0.00136));
#665=CARTESIAN_POINT('',(0.1304412,0.0722565,0.00136));
#666=CARTESIAN_POINT('',(0.1304412,0.0722565,0.0064));
#667=CARTESIAN_POINT('',(0.1209412,0.0722564,0.00136));
#668=CARTESIAN_POINT('',(0.1209412,0.0752564,0.00136));
#669=CARTESIAN_POINT('',(0.1114412,0.0752564,0.00136));
#670=CARTESIAN_POINT('',(0.1114412,0.0722564,0.00136));
#671=CARTESIAN_POINT('',(0.1114412,0.0722565,0.00136));
#672=CARTESIAN_POINT('',(0.,0.0722565,0.00136));
#673=CARTESIAN_POINT('',(0.1114412,0.0722564,0.00636));
#674=CARTESIAN_POINT('',(0.1114412,0.0722565,0.0064));
#675=CARTESIAN_POINT('',(0.1114412,0.0722565,0.0064));
#676=CARTESIAN_POINT('',(0.1114412,0.0752564,0.00636));
#677=CARTESIAN_POINT('',(0.1114412,0.0752564,0.0064));
#678=CARTESIAN_POINT('',(0.1114412,0.,0.0064));
#679=CARTESIAN_POINT('',(0.194317,-0.0702564,-0.0096));
#680=CARTESIAN_POINT('',(0.199317,-0.0702564,-0.0096));
#681=CARTESIAN_POINT('',(0.199317,-0.0702564,-0.0096));
#682=CARTESIAN_POINT('',(0.199317,-0.0702564,0.0064));
#683=CARTESIAN_POINT('',(0.194317,-0.0702564,0.0064));
#684=CARTESIAN_POINT('',(0.194317,-0.0752564,0.0064));
#685=CARTESIAN_POINT('',(0.194317,-0.0752564,-0.0096));
#686=CARTESIAN_POINT('',(0.194317,-0.0752564,-0.0096));
#687=CARTESIAN_POINT('',(0.194317,-0.0702564,-0.0096));
#688=CARTESIAN_POINT('',(0.199317,0.,-0.0096));
#689=CARTESIAN_POINT('',(0.199317,0.0702564,-0.0096));
#690=CARTESIAN_POINT('',(0.199317,0.0702564,-0.0096));
#691=CARTESIAN_POINT('',(0.199317,0.0702564,0.0064));
#692=CARTESIAN_POINT('',(0.199317,0.,0.0064));
#693=CARTESIAN_POINT('',(0.199317,0.,-0.0096));
#694=CARTESIAN_POINT('',(0.194317,0.0702564,-0.0096));
#695=CARTESIAN_POINT('',(0.194317,0.0752564,-0.0096));
#696=CARTESIAN_POINT('',(0.194317,0.0752564,-0.0096));
#697=CARTESIAN_POINT('',(0.194317,0.0752564,0.0064));
#698=CARTESIAN_POINT('',(0.194317,0.0702564,0.0064));
#699=CARTESIAN_POINT('',(0.194317,0.0702564,-0.0096));
#700=CARTESIAN_POINT('',(0.1882464,0.0543029,-0.0096));
#701=CARTESIAN_POINT('',(0.1882464,0.0543029,-0.0096));
#702=CARTESIAN_POINT('',(0.1897464,0.0543029,-0.0096));
#703=CARTESIAN_POINT('',(0.1882464,0.0543029,-0.0056));
#704=CARTESIAN_POINT('',(0.1897464,0.0543029,-0.0056));
#705=CARTESIAN_POINT('',(0.1882464,-0.0647521,-0.0096));
#706=CARTESIAN_POINT('',(0.1882464,-0.0647521,-0.0096));
#707=CARTESIAN_POINT('',(0.1897464,-0.0647521,-0.0096));
#708=CARTESIAN_POINT('',(0.1882464,-0.0647521,-0.0056));
#709=CARTESIAN_POINT('',(0.1897464,-0.0647521,-0.0056));
#710=CARTESIAN_POINT('',(0.,0.,-0.0096));
#711=CARTESIAN_POINT('',(0.,0.0752564,-0.0096));
#712=CARTESIAN_POINT('',(0.,-0.0752564,-0.0096));
#713=CARTESIAN_POINT('',(0.,-0.0752564,-0.0096));
#714=CARTESIAN_POINT('',(0.,-0.0752564,0.0064));
#715=CARTESIAN_POINT('',(0.,0.0752564,-0.0096));
#716=CARTESIAN_POINT('',(0.,0.0752564,0.0064));
#717=CARTESIAN_POINT('',(0.,0.0752564,0.0064));
#718=CARTESIAN_POINT('',(0.,0.,0.0064));
#719=CARTESIAN_POINT('',(0.,-0.0722565,0.0064));
#720=CARTESIAN_POINT('',(0.,0.0722565,0.0064));
#721=CARTESIAN_POINT('',(0.,0.,0.0064));
#722=CARTESIAN_POINT('',(0.,0.0722565,0.0064));
#723=CARTESIAN_POINT('',(0.,0.,-0.0056));
#724=CARTESIAN_POINT('',(0.,0.0722565,-0.0056));
#725=CARTESIAN_POINT('',(0.,-0.0722565,-0.0056));
#726=CARTESIAN_POINT('',(0.,-0.0722565,0.0064));
#727=CARTESIAN_POINT('',(0.,0.0722565,0.0064));
#728=MECHANICAL_DESIGN_GEOMETRIC_PRESENTATION_REPRESENTATION('',(#433),
#729);
#729=(
GEOMETRIC_REPRESENTATION_CONTEXT(3)
GLOBAL_UNCERTAINTY_ASSIGNED_CONTEXT((#730))
GLOBAL_UNIT_ASSIGNED_CONTEXT((#733,#732,#731))
REPRESENTATION_CONTEXT('Right bottom case','TOP_LEVEL_ASSEMBLY_PART')
);
#730=UNCERTAINTY_MEASURE_WITH_UNIT(LENGTH_MEASURE(1.E-8),#733,
'DISTANCE_ACCURACY_VALUE','Maximum Tolerance applied to model');
#731=(
NAMED_UNIT(*)
SI_UNIT($,.STERADIAN.)
SOLID_ANGLE_UNIT()
);
#732=(
NAMED_UNIT(*)
PLANE_ANGLE_UNIT()
SI_UNIT($,.RADIAN.)
);
#733=(
LENGTH_UNIT()
NAMED_UNIT(*)
SI_UNIT($,.METRE.)
);
#734=PRODUCT_DEFINITION_SHAPE('','',#735);
#735=PRODUCT_DEFINITION('','',#737,#736);
#736=PRODUCT_DEFINITION_CONTEXT('',#743,'design');
#737=PRODUCT_DEFINITION_FORMATION_WITH_SPECIFIED_SOURCE('','',#739,
 .NOT_KNOWN.);
#738=PRODUCT_RELATED_PRODUCT_CATEGORY('','',(#739));
#739=PRODUCT('Right bottom case','Right bottom case',
'Right bottom case',(#741));
#740=PRODUCT_CATEGORY('','');
#741=PRODUCT_CONTEXT('',#743,'mechanical');
#742=APPLICATION_PROTOCOL_DEFINITION('international standard',
'ap242_managed_model_based_3d_engineering',2020,#743);
#743=APPLICATION_CONTEXT('managed model based 3d engineering');
ENDSEC;
END-ISO-10303-21;
